<svg width="652" height="417" viewBox="0 0 652 417" fill="none" xmlns="http://www.w3.org/2000/svg">
<g opacity="0.8">
<path fill-rule="evenodd" clip-rule="evenodd" d="M9.27496 343.371C25.5813 280.226 190.582 316.199 298.754 296.677C406.926 277.157 534.903 186.243 619.601 230.777C704.298 275.311 614.181 382.963 419.922 407.256C225.662 431.549 -7.03134 406.514 9.27496 343.371Z" fill="#F2F2F2"/>
<g opacity="0.5">
<path opacity="0.5" fill-rule="evenodd" clip-rule="evenodd" d="M52.3717 48.4525C50.7987 49.6338 51.4097 53.8304 51.3767 55.384C51.3261 57.8015 51.5262 60.198 51.795 62.6072C51.9752 64.2209 52.9905 79.6149 55.8167 78.4328C57.4097 77.7666 56.4107 73.3128 56.4077 71.9044C56.4017 68.7732 56.2277 65.6496 55.9507 62.5245C55.6927 59.6242 55.5307 56.757 55.6787 53.8507C55.7147 53.1416 56.5977 45.2694 52.3717 48.4525Z" fill="#89C5CC"/>
<path opacity="0.5" fill-rule="evenodd" clip-rule="evenodd" d="M120.873 46.5553C107.36 46.6357 93.8516 47.1373 80.3446 47.4441C73.8446 47.5922 67.3496 47.7802 60.8576 48.0509C58.6446 48.1434 53.8998 47.6103 52.0566 48.4968C47.9649 50.4647 54.5637 50.9249 56.3226 50.8768C83.0536 50.1481 109.793 49.1879 136.546 49.1427C149.67 49.1209 162.787 49.4014 175.912 49.339C180.929 49.3149 186.484 47.6892 187.751 52.0806C189.181 57.0352 187.538 62.5523 187.091 67.5318C186.793 70.8554 186.899 74.1106 187.098 77.432C187.226 79.5592 186.893 81.9565 187.394 84.0446C187.875 86.0554 189.797 87.2607 191.559 85.0086C192.612 83.6627 192.088 80.3398 192.158 78.781C192.252 76.6815 192.164 74.5821 192.164 72.4819C192.163 67.3558 193.125 62.2508 192.998 57.1255C192.916 53.8206 192.683 47.8298 187.14 47.0358C181.036 46.1613 173.533 47.0403 167.286 46.9869C151.808 46.8538 136.356 46.4643 120.873 46.5553Z" fill="#89C5CC"/>
<path opacity="0.5" fill-rule="evenodd" clip-rule="evenodd" d="M83.6376 78.6163C78.5416 78.6163 73.4456 78.6396 68.3506 78.7027C63.9806 78.7569 57.1106 78.0726 53.0431 79.2479C50.2588 80.0525 49.5192 82.3903 53.0431 83.0129C56.8866 83.6919 62.6786 82.5813 66.6996 82.5279C86.8636 82.2602 107.222 81.9113 127.358 82.8708C146.226 83.7686 165.457 84.6402 184.352 83.6919C185.942 83.6122 194.05 83.3694 190.35 81.0842C188.192 79.7502 179.443 80.627 176.638 80.5631C166.744 80.339 156.84 80.2894 146.949 80.0074C137.186 79.7284 127.468 78.9035 117.702 78.699C106.357 78.4614 94.9866 78.6163 83.6376 78.6163Z" fill="#89C5CC"/>
<path opacity="0.5" fill-rule="evenodd" clip-rule="evenodd" d="M78.5386 56.8232C86.4806 57.0841 94.3386 65.7451 86.3026 69.9305C78.7637 73.8587 64.6357 69.5538 68.8277 61.938C68.2247 63.0388 69.5897 60.7416 69.6067 60.7266C70.4037 60.0205 71.8347 59.2385 72.8177 58.682C73.9417 58.0444 75.1127 57.3435 76.4687 57.024C77.3587 56.8142 77.2187 57.603 78.5386 56.8232ZM74.6707 53.6996C70.9537 54.7907 69.2577 56.0216 66.7027 58.2496C64.9357 59.7912 62.6817 60.6025 62.7017 62.6854C62.7067 63.1464 63.4937 63.6532 63.6307 64.0976C63.8187 64.7112 63.6007 65.4977 63.7497 66.1497C65.2877 72.8796 75.9647 75.1483 83.7806 73.8775C90.5886 72.7706 95.6806 67.8566 94.1036 62.5125C92.5156 57.133 81.9076 51.5708 74.6707 53.6996Z" fill="#89C5CC"/>
<path opacity="0.5" fill-rule="evenodd" clip-rule="evenodd" d="M71.3597 63.0937C71.3597 65.5142 76.4457 65.5142 76.4457 63.0937C76.4457 60.7002 71.3597 60.5972 71.3597 63.0937Z" fill="#89C5CC"/>
<path opacity="0.5" fill-rule="evenodd" clip-rule="evenodd" d="M77.7227 62.6035C77.7227 64.527 81.7626 64.527 81.7626 62.6035C81.7626 60.7018 77.7227 60.6206 77.7227 62.6035Z" fill="#89C5CC"/>
<path opacity="0.5" fill-rule="evenodd" clip-rule="evenodd" d="M78.9737 66.5707C77.6797 66.9445 76.0377 66.1692 74.9757 66.6798C73.0947 67.5859 74.9807 68.4048 75.9887 68.7687C80.5287 70.4072 81.3367 65.8895 78.9737 66.5707Z" fill="#89C5CC"/>
<path opacity="0.5" fill-rule="evenodd" clip-rule="evenodd" d="M148.314 61.2056C148.178 61.2485 147.697 61.4019 148.314 61.2056V61.2056ZM128.541 59.0325C125.143 59.6092 122.274 61.9959 118.582 61.6763C115.753 61.4319 113.837 59.3784 111.044 59.0806C107.471 58.6986 97.7456 64.827 102.859 65.879C105.842 66.4926 107.497 62.3937 110.132 62.1756C112.217 62.0034 115.052 63.9262 117.212 64.1999C121.242 64.7105 124.01 63.0411 127.547 61.9643C131.392 60.795 133.579 61.8485 136.922 63.1487C139.561 64.1743 142.047 64.8428 145.066 64.4195C147.9 64.0224 151.46 61.8305 154.313 62.0553C157.107 62.2756 159.101 64.4683 161.975 64.6721C163.16 64.7556 164.924 65.0594 164.725 63.684C164.565 62.5839 162.932 62.7704 161.91 62.3696C159.282 61.3409 156.824 59.5182 153.653 59.6739C151.267 59.7912 149.095 61.0515 146.897 61.6545C139.697 63.6292 135.649 57.8338 128.541 59.0325Z" fill="#89C5CC"/>
<path opacity="0.5" fill-rule="evenodd" clip-rule="evenodd" d="M134.557 93.8997C120.668 93.996 106.732 94.1509 92.8827 94.9878C89.5987 95.1863 56.0717 97.567 56.1357 97.7384C56.2527 98.055 60.5656 98.54 60.5386 98.6145C60.2477 98.0731 59.5837 97.8482 58.5457 97.9422C90.3437 97.9422 122.04 95.8014 153.88 96.1864C161.88 96.2827 169.91 96.2428 177.905 96.4323C179.901 96.4797 184.846 97.555 186.413 96.8775C190.527 95.0991 183.054 94.8938 181.816 94.8194C166.147 93.8764 150.269 93.7817 134.557 93.8997Z" fill="#69A1AC"/>
<path opacity="0.5" fill-rule="evenodd" clip-rule="evenodd" d="M52.0193 98.9739C49.943 100.54 51.8549 106.171 51.9367 108.288C52.055 111.347 51.9575 114.429 52.3146 117.481C52.7222 120.967 53.3546 124.682 54.571 128.064C55.241 129.927 57.5926 132.889 58.5247 129.503C59.1897 127.084 58.1797 123.876 57.8276 121.413C57.3576 118.117 57.2437 114.865 57.2266 111.553C57.2106 108.667 57.1367 105.769 56.8217 102.893C56.6586 101.4 55.6596 96.2511 52.0193 98.9739Z" fill="#69A1AC"/>
<path opacity="0.5" fill-rule="evenodd" clip-rule="evenodd" d="M104.258 127.653C94.4017 127.78 84.5247 127.955 74.6857 128.417C70.6527 128.608 66.6227 128.89 62.6047 129.211C61.7857 129.276 52.7103 129.553 56.7657 132.071C58.5957 133.209 66.1247 131.636 68.6107 131.473C72.7937 131.197 76.9747 131.018 81.1687 130.885C90.8877 130.574 100.636 130.3 110.364 130.427C128.131 130.659 145.783 130.762 163.554 130.464C166.079 130.422 185.86 130.819 186.532 128.844C187.073 127.253 179.999 127.983 178.709 128.011C173.978 128.117 169.246 128.093 164.512 128.074C144.461 127.998 124.294 127.398 104.258 127.653Z" fill="#69A1AC"/>
<path opacity="0.5" fill-rule="evenodd" clip-rule="evenodd" d="M183.183 96.3331C183.496 102.931 184.99 109.522 185.468 116.141C185.686 119.166 185.943 122.189 186.14 125.216C186.204 126.192 185.681 128.544 187.216 129.106C189.322 129.876 189.606 128.324 190 127.274C191.139 124.242 190.369 120.302 190.265 117.188C190.165 114.172 190.158 111.15 189.862 108.139C189.559 105.062 188.736 102.045 188.354 98.98C188.192 97.6836 188.757 95.5262 186.927 94.7216C185.345 94.0261 183.115 94.9029 183.183 96.3331Z" fill="#69A1AC"/>
<path opacity="0.5" fill-rule="evenodd" clip-rule="evenodd" d="M86.3086 107.309C86.3456 107.331 86.3826 107.353 86.4196 107.375C86.3826 107.353 86.3456 107.331 86.3086 107.309ZM77.9326 105.354C81.0556 106.025 83.6207 105.775 86.6047 107.485C89.0777 108.902 91.6146 110.977 92.4346 113.269C94.3296 118.564 87.9046 121.466 81.8816 121.523C75.7116 121.581 66.5786 120.505 66.8946 114.559C67.1376 109.99 71.5736 105.532 77.9326 105.354ZM78.1527 102.361C70.0536 102.665 63.5206 109.504 63.5906 115.26C63.6756 122.238 74.1886 124.036 81.6576 124.084C90.0866 124.138 98.4917 119.762 96.2337 112.634C94.4237 106.923 85.9407 102.057 78.1527 102.361Z" fill="#69A1AC"/>
<path opacity="0.5" fill-rule="evenodd" clip-rule="evenodd" d="M70.0057 111.729C70.0057 113.675 74.0936 113.675 74.0936 111.729C74.0936 109.807 70.0057 109.724 70.0057 111.729Z" fill="#69A1AC"/>
<path opacity="0.5" fill-rule="evenodd" clip-rule="evenodd" d="M78.5806 110.876C78.5806 112.837 82.7006 112.837 82.7006 110.876C82.7006 108.937 78.5806 108.854 78.5806 110.876Z" fill="#69A1AC"/>
<path opacity="0.5" fill-rule="evenodd" clip-rule="evenodd" d="M73.8537 115.314C71.1927 117.311 80.5407 120.813 82.7447 118.034C84.5557 115.752 80.6127 116.509 79.2157 116.385C77.6967 116.251 75.0937 114.384 73.8537 115.314Z" fill="#69A1AC"/>
<path opacity="0.5" fill-rule="evenodd" clip-rule="evenodd" d="M148.588 110.916C148.332 110.997 148.332 110.997 148.588 110.916V110.916ZM113.486 107.664C110.792 108.044 101.95 110.287 101.831 112.69C101.612 117.059 110.272 112.584 112.152 112.01C117.26 110.449 119.944 113.633 125.076 113.801C129.532 113.947 133.63 111.079 137.828 111.418C142.227 111.774 144.342 115.292 149.42 113.424C152.107 112.436 152.039 110.912 149.023 110.768C147.201 110.682 145.948 111.248 144.048 110.658C141.076 109.737 139.879 108.236 136.323 108.474C133.639 108.655 131.214 109.791 128.594 110.232C122.596 111.24 119.269 106.849 113.486 107.664Z" fill="#69A1AC"/>
<path opacity="0.5" fill-rule="evenodd" clip-rule="evenodd" d="M169.282 112.813C169.096 112.871 169.096 112.871 169.282 112.813V112.813ZM169.961 110.994C169.991 111.004 170.194 111.216 169.961 110.994V110.994ZM166.873 109.605C166.757 109.672 166.757 109.672 166.873 109.605V109.605ZM166.94 109.588C167.539 109.858 172.354 112.333 168.857 112.917C167.081 113.212 165.612 110.526 166.94 109.588ZM165.346 106.845C157.633 109.49 165.933 118.953 171.986 115.108C174.533 113.49 174.868 110.22 172.39 108.534C170.906 107.524 167.361 106.153 165.346 106.845Z" fill="#69A1AC"/>
<path opacity="0.5" fill-rule="evenodd" clip-rule="evenodd" d="M92.9407 144.138C83.3157 144.14 73.6067 143.988 63.9946 144.417C62.3776 144.489 56.2157 144.257 55.3821 145.529C53.8574 147.855 60.1976 146.7 61.1186 146.63C80.2567 145.19 100.248 146.019 119.449 146.43C135.153 146.765 150.772 146.973 166.457 147.582C170.58 147.742 174.699 147.919 178.819 148.106C180.162 148.167 183.542 148.836 183.825 147.223C184.087 145.73 179.871 146.067 178.818 146.026C170.443 145.694 162.074 145.347 153.701 144.993C133.549 144.138 113.125 144.135 92.9407 144.138Z" fill="#89C5CC"/>
<path opacity="0.5" fill-rule="evenodd" clip-rule="evenodd" d="M55.0731 146.724C53.2754 148.067 54.1181 153.199 54.0679 154.894C53.9802 157.861 53.794 160.825 53.7104 163.79C53.6236 166.89 53.7443 170.003 53.9881 173.098C54.0902 174.398 55.5086 180.678 57.7417 177.084C58.7397 175.478 57.7177 171.004 57.7327 169.185C57.7607 165.873 57.9977 162.575 58.2167 159.267C58.4057 156.424 58.4127 153.578 58.5777 150.734C58.6297 149.827 58.7727 143.933 55.0731 146.724Z" fill="#89C5CC"/>
<path opacity="0.5" fill-rule="evenodd" clip-rule="evenodd" d="M185.444 173.219C176.077 173.941 166.56 173.6 157.158 174.133C149.055 174.593 140.959 174.781 132.835 174.91C114.439 175.202 96.0107 175.487 77.6677 176.639C73.4877 176.902 69.3117 177.181 65.1207 177.321C63.0247 177.391 54.228 176.674 53.5729 178.336C52.4572 181.166 61.8637 180.046 63.8927 180.001C68.3547 179.905 72.7957 179.662 77.2447 179.407C95.9487 178.336 114.723 178.015 133.467 177.57C143.66 177.328 153.783 176.767 163.954 176.257C169.024 176.003 174.107 175.995 179.176 175.748C180.503 175.684 185.198 175.811 186.152 175.008C186.807 174.457 186.973 173.112 185.444 173.219Z" fill="#89C5CC"/>
<path opacity="0.5" fill-rule="evenodd" clip-rule="evenodd" d="M182.269 147.205C182.59 153.96 183.098 160.709 183.401 167.463C183.492 169.494 182.676 173.134 184.18 174.925C186.599 177.806 188.487 174.757 188.93 172.962C190.328 167.298 188.825 161.041 188.434 155.341C188.286 153.167 189.184 148.328 187.786 146.382C186.455 144.528 182.15 144.714 182.269 147.205Z" fill="#89C5CC"/>
<path opacity="0.5" fill-rule="evenodd" clip-rule="evenodd" d="M166.544 156.825C170.132 157.556 170.656 163.422 166.607 163.857C160.58 164.503 163.216 158.035 166.544 156.825ZM165.538 154.492C164.444 154.467 161.917 154.239 161.242 154.909C160.678 155.47 161.248 156.653 161.182 157.187C160.945 159.096 158.881 160.198 159.804 162.452C160.43 163.981 162.107 165.418 164.151 165.949C174.936 168.752 174.805 153.082 165.538 154.492Z" fill="#89C5CC"/>
<path opacity="0.5" fill-rule="evenodd" clip-rule="evenodd" d="M68.1657 155.545C68.1387 155.57 68.1117 155.596 68.0857 155.622C68.1117 155.596 68.1387 155.57 68.1657 155.545ZM76.6367 152.156C76.5947 151.884 76.5517 151.613 76.5097 151.341C82.3576 153.417 87.0106 157.278 85.0686 162.461C83.5876 166.414 78.2347 167.817 73.2477 166.841C67.7277 165.759 65.0897 162.338 66.5777 158.137C67.2647 156.198 69.3737 153.594 72.0987 152.97C73.3677 152.68 76.1737 153.42 76.6367 152.156ZM73.2167 150.514C71.7377 150.589 70.2977 151.053 69.0907 151.687C70.2207 150.968 71.7267 150.54 73.2167 150.514ZM73.2597 147.961C69.6057 148.045 67.2107 149.708 65.0437 151.705C64.3637 152.332 62.0637 153.995 62.3487 154.84C62.5737 155.508 63.1627 156.484 64.4037 155.74C57.9057 165.477 74.6917 173.783 84.9387 167.011C94.5027 160.692 85.0136 147.664 73.2597 147.961Z" fill="#89C5CC"/>
<path opacity="0.5" fill-rule="evenodd" clip-rule="evenodd" d="M69.9396 157.006C69.9396 158.303 72.6166 158.303 72.6166 157.006C72.6166 155.71 69.9396 155.71 69.9396 157.006Z" fill="#89C5CC"/>
<path opacity="0.5" fill-rule="evenodd" clip-rule="evenodd" d="M74.5076 157.228C74.5076 158.545 77.2277 158.545 77.2277 157.228C77.2277 155.91 74.5076 155.91 74.5076 157.228Z" fill="#89C5CC"/>
<path opacity="0.5" fill-rule="evenodd" clip-rule="evenodd" d="M76.5806 161.856C75.3086 161.933 70.6496 161.609 69.8326 162.446C68.4656 163.847 70.6466 163.896 71.7176 164.047C72.6826 164.183 76.8766 164.107 77.4676 163.462C77.9896 162.893 77.8676 161.773 76.5806 161.856Z" fill="#89C5CC"/>
<path opacity="0.5" fill-rule="evenodd" clip-rule="evenodd" d="M132.705 158.223C132.486 158.291 132.486 158.291 132.705 158.223V158.223ZM115.104 157.256C112.236 157.414 109.808 158.654 107.066 159.149C104.14 159.678 102.873 158.706 100.212 158.07C97.4436 157.408 95.4746 157.669 93.2496 159.091C91.9896 159.896 89.2236 161.751 90.0116 163.181C91.8156 166.456 95.8996 161.128 97.8206 160.88C100.817 160.493 103.483 162.464 106.939 161.9C110.07 161.39 112.848 159.773 116.118 159.756C118.853 159.741 121.43 160.866 124.13 161.139C128.252 161.554 130.958 160.454 134.768 159.637C138.072 158.929 140.388 159.863 143.496 160.648C144.916 161.007 149.655 162.312 148.783 159.945C148.536 159.277 142.291 158.081 141.323 157.851C137.909 157.04 135.747 157.356 132.494 158.289C129.782 159.067 127.5 159.446 124.592 159.017C121.388 158.546 118.474 157.063 115.104 157.256Z" fill="#89C5CC"/>
</g>
<g opacity="0.5">
<path opacity="0.5" fill-rule="evenodd" clip-rule="evenodd" d="M247.039 48.7081C247.502 41.2209 248.138 33.745 248.473 26.2535C248.64 22.5413 248.77 18.8288 248.896 15.1159C248.923 14.2892 248.952 13.4628 248.977 12.636C249.058 9.82724 248.615 9.59752 252.374 9.34817C269.143 8.23513 285.979 7.86622 302.768 6.85921C323.017 5.64473 343.371 4.80607 363.677 4.43017C372.7 4.26286 381.762 3.91621 390.787 4.12721C392.786 4.1739 396.711 3.78267 397.499 4.9515C397.839 5.45644 397.125 7.19398 397.035 7.77659C396.752 9.59677 396.488 11.4233 396.325 13.2525C395.365 24.041 395.937 35.1015 398.715 45.7266C392.198 42.9632 383.964 40.5862 376.368 41.0577C368.624 41.539 362.831 44.9032 356.632 47.9998C353.126 49.7518 351.945 50.212 348.447 48.5156C345.432 47.053 342.58 45.3815 339.736 43.7399C335.347 41.2074 331.205 38.462 326.949 35.8068C319.124 30.9252 308.342 23.9765 297.534 26.0224C289.812 27.4841 282.682 30.6755 275.98 33.7984C266.022 38.4387 257.009 44.1212 247.039 48.7081ZM381.243 0.802373C342.77 0.802373 304.585 3.60694 266.22 5.12408C262.213 5.28244 258.22 5.51569 254.228 5.80542C251.567 5.9986 245.06 5.18754 243.316 6.89718C242.152 8.03782 243.152 8.20896 243.316 9.29275C243.522 10.6585 243.4 12.2769 243.347 13.7225C243.219 17.206 243.084 20.6891 242.979 24.1728C242.582 37.3393 242.333 50.5038 243.042 63.6667C243.197 66.5377 244.588 70.5125 243.827 73.3022C243.276 75.322 241.434 76.5507 245.682 76.9236C249.862 77.2913 254.973 76.3567 259.157 76.0574C263.365 75.7566 267.572 75.4295 271.785 75.1686C290.102 74.0339 308.597 74.2053 326.963 73.8278C345.493 73.4473 364.031 73.4233 382.568 73.415C390.324 73.412 399.187 73.7399 406.755 72.1352C409.417 71.5697 409.848 71.2915 409.191 69.3056C409.067 68.9281 408.263 68.789 408.027 68.1077C407.706 67.1806 407.871 66.0534 407.796 65.0886C407.551 61.9365 407.465 58.7783 407.268 55.6246C406.938 50.3541 405.73 45.2393 404.836 40.0223C403.805 33.9976 403.858 27.8798 403.837 21.8153C403.825 18.4515 403.94 15.0988 404.299 11.7444C404.53 9.59293 405.939 6.38082 405.224 4.37438C404.868 3.37541 404.286 2.58315 402.903 2.15326C402.027 1.88052 401.29 2.09393 400.424 2.0249C399.397 1.94294 398.756 1.83451 397.526 1.62494C392.253 0.726353 386.615 0.802373 381.243 0.802373Z" fill="#69A1AC"/>
<path opacity="0.5" fill-rule="evenodd" clip-rule="evenodd" d="M359.951 15.1262C359.948 17.2228 359.513 20.3168 360.799 22.2912C362.429 24.7955 364.469 24.0126 365.009 21.6593C365.319 20.3109 365.311 16.3204 364.735 15.1262C363.92 13.4357 359.951 12.2843 359.951 15.1262Z" fill="#89C5CC"/>
<path opacity="0.5" fill-rule="evenodd" clip-rule="evenodd" d="M364.63 15.9358C362.012 16.0052 354.388 15.5327 352.617 17.1155C349.579 19.83 354.868 20.3109 357.139 20.1589C359.767 19.9831 367.887 20.412 369.647 18.8275C372.591 16.1767 366.688 15.8793 364.63 15.9358Z" fill="#89C5CC"/>
<path opacity="0.5" fill-rule="evenodd" clip-rule="evenodd" d="M263.047 85.9802C274.555 87.4833 270.975 100.678 260.086 97.6212C256.291 96.5564 250.701 93.4794 252.798 89.8542C254.364 87.1457 259.47 85.7222 263.047 85.9802ZM258.282 81.8783C250.798 82.8257 245.681 88.9158 248.248 94.2284C250.723 99.3529 260.112 103.106 267.037 101.264C273.647 99.5056 276.945 92.8921 274.717 88.0541C272.388 82.9994 264.802 81.0526 258.282 81.8783Z" fill="#89C5CC"/>
<path opacity="0.5" fill-rule="evenodd" clip-rule="evenodd" d="M328.28 87.5239C325.415 87.7029 322.939 89.2113 320.056 89.4783C317.36 89.7279 315.126 89.0339 312.602 88.4797C309.551 87.8097 306.753 87.5157 303.635 88.1105C301.253 88.5654 298.903 89.7843 296.428 89.9317C291.558 90.2212 285.898 86.0426 282.096 90.7686C280.273 93.0335 282.92 94.493 285.646 93.4365C288.488 92.3349 287.093 91.9409 290.619 92.5914C293.56 93.1335 295.938 93.4283 298.884 92.6681C301.553 91.98 303.896 90.7205 306.797 90.5784C309.638 90.44 312.109 91.413 314.824 91.8326C318.163 92.3492 321.117 91.9582 324.281 91.1717C327.29 90.4227 328.491 90.0137 331.528 90.6814C333.45 91.104 337.651 92.4477 339.522 91.3649C342.758 89.4933 338.426 89.2196 336.72 88.9534C333.973 88.5255 331.131 87.348 328.28 87.5239Z" fill="#89C5CC"/>
<path opacity="0.5" fill-rule="evenodd" clip-rule="evenodd" d="M393.848 86.2659C393.871 86.2795 393.894 86.293 393.916 86.3058C393.894 86.293 393.87 86.2795 393.848 86.2659ZM391.035 85.8238C395.218 86.026 399.741 91.7559 394.199 91.9597C390.298 92.1026 385.933 87.0855 391.035 85.8238ZM390.448 81.1353C377.222 83.9123 383.268 97.9347 396.026 96.315C401.821 95.5789 403.785 90.531 401.869 86.7938C401.046 85.1891 399.442 83.8356 397.525 82.9122C396.111 82.2302 392.065 80.797 390.448 81.1353Z" fill="#89C5CC"/>
<path opacity="0.5" fill-rule="evenodd" clip-rule="evenodd" d="M328.74 110.408C340.379 110.108 352.019 109.807 363.67 109.726C369.984 109.682 376.264 109.765 382.569 110.037C385.365 110.158 388.16 110.274 390.958 110.363C391.441 110.379 392.108 110.354 392.844 110.327C394.576 110.263 396.691 110.185 397.686 110.58C403.252 112.794 391.912 113.037 390.534 113.02C387.447 112.981 384.363 112.866 381.279 112.751C378.584 112.651 375.889 112.551 373.191 112.501C355.884 112.181 338.471 112.766 321.135 113.348C317.161 113.481 313.191 113.615 309.227 113.737C305.018 113.867 300.811 113.951 296.603 114.035C290.589 114.155 284.575 114.275 278.561 114.53C276.264 114.627 273.968 114.729 271.672 114.832C268.383 114.979 265.094 115.127 261.803 115.257C259.227 115.359 256.65 115.458 254.07 115.507C253.606 115.515 253.001 115.564 252.34 115.617C250.741 115.745 248.817 115.9 247.777 115.58C246.527 115.196 245.515 114.658 246.203 113.518C246.784 112.555 248.897 112.671 250.438 112.755C250.859 112.778 251.237 112.799 251.529 112.794C256.453 112.723 261.366 112.514 266.281 112.288C268.079 112.205 269.876 112.12 271.673 112.035H271.674C281.031 111.593 290.379 111.151 299.759 111.031C309.423 110.907 319.081 110.657 328.74 110.408ZM389.529 168.01L392.875 167.98C394.603 168.093 395.376 169.457 394.266 170.505C393.417 171.308 390.148 171.344 388.017 171.367C387.426 171.374 386.923 171.38 386.583 171.401C381.02 171.737 375.468 171.888 369.888 171.928C358.138 172.012 346.432 172.391 334.701 172.894C322.693 173.409 310.675 173.602 298.656 173.796H298.655C289.813 173.938 280.97 174.081 272.131 174.351C267.069 174.506 262.006 174.622 256.942 174.722C256.398 174.732 255.674 174.791 254.855 174.857C251.656 175.117 247.008 175.495 245.955 173.584C245.02 171.889 246.319 171.109 248.219 170.754C247.919 169.75 247.975 168.339 248.006 167.531C248.016 167.288 248.023 167.099 248.018 166.993C247.971 165.98 247.937 164.966 247.904 163.952C247.866 162.804 247.829 161.656 247.77 160.508C247.716 159.466 247.667 158.423 247.617 157.38C247.421 153.265 247.225 149.14 246.803 145.042C246.609 143.15 246.301 141.28 245.993 139.414C245.502 136.434 245.011 133.461 244.989 130.42C244.985 129.872 244.948 129.188 244.907 128.416C244.697 124.467 244.365 118.222 247.625 116.321C253.374 113.798 252.237 121.079 251.73 124.328C251.647 124.865 251.58 125.292 251.564 125.546C251.234 130.949 251.682 136.115 252.405 141.484C252.894 145.11 252.608 148.724 252.323 152.344C252.221 153.636 252.119 154.93 252.052 156.225C252.019 156.866 251.989 157.507 251.96 158.147C251.869 160.117 251.779 162.087 251.582 164.055C251.56 164.268 251.553 164.677 251.544 165.198C251.518 166.67 251.477 169.045 251.058 170.486C251.95 170.457 252.815 170.464 253.531 170.47C253.986 170.474 254.381 170.477 254.683 170.47C256.055 170.439 257.428 170.409 258.8 170.379C262.854 170.289 266.908 170.2 270.961 170.085C280.529 169.815 290.1 169.724 299.671 169.634C310.975 169.527 322.28 169.421 333.579 169.017C352.201 168.351 370.887 168.181 389.529 168.01ZM392.983 115.187C392.973 124.443 393.925 133.444 395.037 142.663C395.725 148.365 396.276 154.089 396.715 159.805C396.735 160.07 396.732 160.512 396.728 161.065V161.066C396.706 164.227 396.658 171.038 400.813 169.409C403.95 168.178 402.744 161.045 402.077 157.097C401.931 156.231 401.81 155.519 401.767 155.055C401.676 154.068 401.586 153.081 401.496 152.094C401.078 147.512 400.661 142.932 400.111 138.355L399.995 137.39C399.359 132.103 398.723 126.82 398.61 121.508C398.601 121.069 398.657 120.458 398.72 119.766C398.904 117.767 399.149 115.104 398.044 114.042C396.49 112.548 392.986 112.99 392.983 115.187Z" fill="#69A1AC"/>
<path opacity="0.5" fill-rule="evenodd" clip-rule="evenodd" d="M329.272 137.877C344.138 132.819 359.178 127.703 374.637 124.06C375.755 123.797 376.461 124.663 376.208 125.39C375.946 126.139 373.528 126.778 371.924 127.202C371.444 127.329 371.037 127.437 370.783 127.522C368.624 128.247 366.459 128.963 364.294 129.68C362.077 130.413 359.86 131.147 357.648 131.89C353.051 133.434 348.449 134.973 343.847 136.511C338.918 138.157 333.99 139.804 329.066 141.46C328.88 141.522 328.693 141.586 328.507 141.648C335.201 143.437 341.857 145.306 348.484 147.231C350.748 147.888 353.005 148.561 355.262 149.232C356.539 149.612 357.816 149.992 359.095 150.369C359.511 150.492 360.236 150.659 361.107 150.859C363.945 151.51 368.335 152.518 368.66 153.536C369.188 155.195 363.126 153.591 360.839 152.985C360.536 152.905 360.299 152.842 360.153 152.807C356.778 151.996 353.444 151.093 350.112 150.189L349.65 150.064C347.009 149.349 344.372 148.625 341.735 147.902C336.583 146.49 331.432 145.077 326.252 143.722C325.52 143.53 324.787 143.339 324.054 143.149C315.742 145.957 307.446 148.791 299.178 151.67C294.744 153.215 290.334 154.794 285.937 156.395C284.977 156.745 283.788 157.285 282.497 157.872C279.403 159.278 275.719 160.953 273.184 160.911C271.826 160.888 270.91 160.669 270.768 159.431C270.622 158.153 272.803 157.483 274.371 157.001C274.746 156.885 275.086 156.78 275.351 156.681C280.051 154.913 284.78 153.191 289.523 151.49C298.943 148.111 308.451 144.867 317.992 141.688C318.047 141.67 318.102 141.652 318.157 141.633C312.865 140.287 307.559 138.972 302.24 137.685C301.709 137.557 300.621 137.33 299.19 137.032C292.429 135.624 278.027 132.625 278.668 130.873C279.403 128.869 292.905 132.531 298.883 134.153C300.004 134.457 300.86 134.689 301.318 134.799C308.465 136.511 315.592 138.273 322.682 140.114C324.875 139.373 327.071 138.626 329.272 137.877Z" fill="#89C5CC"/>
<path opacity="0.5" fill-rule="evenodd" clip-rule="evenodd" d="M265.572 181.895C269.923 182.469 272.993 185.608 272.516 188.895C271.87 193.336 265.983 195.372 260.544 194.793C254.373 194.135 253.075 190.212 256.065 186.439C256.727 185.603 257.488 184.603 258.692 184.163C259.519 183.861 260.573 184.128 261.239 183.884C263.575 183.03 262.17 181.668 265.572 181.895ZM263.59 178.994C258.28 179.504 248.469 184.124 248.965 188.747C249.396 189.283 250.044 189.502 250.909 189.405C250.701 190.407 250.769 191.397 251.113 192.378C251.617 193.65 252.624 194.693 253.972 195.521C256.749 197.228 260.545 197.647 264.003 197.347C270.46 196.789 275.548 193.471 275.911 188.421C276.265 183.492 270.543 178.334 263.59 178.994Z" fill="#89C5CC"/>
<path opacity="0.5" fill-rule="evenodd" clip-rule="evenodd" d="M289.31 185.009C286.927 185.958 283.158 187.417 281.761 189.22C280.285 191.125 281.813 193.209 284.923 192.308C287.392 191.593 288.962 189.32 291.596 188.592C293.92 187.949 294.856 188.277 297.313 188.917C299.844 189.576 302.056 190.214 304.792 190.051C308.231 189.848 311.209 188.349 314.575 188.008C317.409 187.721 319.746 188.55 322.46 188.88C325.609 189.262 327.668 188.366 330.614 187.899C332.618 187.582 336.15 188.874 337.612 188.39C340.898 187.304 337.421 185.976 335.602 185.537C332.537 184.797 330.651 185.449 327.736 186.063C324.571 186.728 323.204 186.228 320.178 185.616C314.057 184.38 309.328 187.371 303.526 186.827C298.155 186.323 294.94 182.767 289.31 185.009Z" fill="#89C5CC"/>
<path opacity="0.5" fill-rule="evenodd" clip-rule="evenodd" d="M389.399 182.799C395.291 186.953 388.672 192.863 382.176 189.543C379.89 188.375 379.853 186.498 381.632 184.819C383.26 183.284 386.835 182.685 389.399 182.799ZM387.215 179.443C381.711 180.248 376.519 182.147 376.02 186.925C375.534 191.585 381.892 193.75 387.233 193.445C399.225 192.758 398.358 177.823 387.215 179.443Z" fill="#89C5CC"/>
</g>
<path opacity="0.5" fill-rule="evenodd" clip-rule="evenodd" d="M517.603 24.6409C513.2 24.7049 502.327 25.9091 500.711 29.8258C499.484 32.7983 503.129 32.1456 505.082 31.0643C507.725 29.601 510.042 28.7257 513.317 28.2806C525.79 26.5841 537.775 32.6682 550.129 33.4375C554.809 33.7292 560.456 33.9187 564.924 32.7795C568.106 31.9674 568.521 30.198 564.89 29.9288C561.805 29.6995 558.391 30.4214 555.228 30.4011C542.139 30.3168 530.504 24.4558 517.603 24.6409Z" fill="#C1DEE2"/>
<g opacity="0.5">
<path opacity="0.5" fill-rule="evenodd" clip-rule="evenodd" d="M54.9727 210.641C46.5485 210.712 38.1284 210.946 29.7208 211.346C21.7255 211.727 13.0504 211.438 5.18525 212.603C2.95195 212.934 -0.0649479 214.464 2.90465 216.148C4.99195 217.331 12.6285 215.97 15.121 215.855C24.3 215.43 33.4837 214.923 42.6757 214.678C51.3777 214.447 60.0787 214.366 68.7857 214.3C70.1147 214.29 72.3207 213.97 73.6447 214.26C75.5467 214.677 75.0957 214.79 75.2377 216.606C75.4957 219.895 75.4247 223.196 75.3377 226.488C75.2537 229.674 75.0967 232.859 75.1127 236.047C75.1227 238.321 74.1567 242.839 75.6737 244.815C77.8577 247.657 80.1237 244.569 80.2867 242.68C80.5997 239.067 80.4597 235.411 80.4607 231.793C80.4617 228.398 80.4947 225.002 80.3357 221.608C80.2197 219.157 80.6857 214.878 78.9297 212.649C77.1407 210.379 72.8337 210.868 69.6917 210.76C64.7897 210.591 59.8787 210.603 54.9727 210.641Z" fill="#89C5CC"/>
<path opacity="0.5" fill-rule="evenodd" clip-rule="evenodd" d="M1.37325 214.738C1.38255 221.118 0.40105 227.455 0.126049 233.828C-5.11111e-05 236.757 -0.255949 239.974 0.729753 242.85C1.72476 245.754 4.88486 246.384 5.24876 243.141C5.98596 236.577 5.80517 229.769 6.37917 223.152C6.58177 220.815 7.90037 216.534 6.66937 214.346C5.58536 212.419 1.36865 212.049 1.37325 214.738Z" fill="#89C5CC"/>
<path opacity="0.5" fill-rule="evenodd" clip-rule="evenodd" d="M80.3696 242.859C65.7396 244.315 50.4451 243.784 35.7108 244.014C28.6417 244.123 21.5741 244.13 14.5041 244.186C12.0367 244.205 5.77074 243.499 3.63613 244.542C0.238135 246.203 3.92493 247.484 6.17453 247.521C20.1266 247.75 34.2341 247.268 48.1835 246.924C54.4509 246.769 60.7386 246.694 66.9896 246.293C70.8376 246.046 75.0426 245.807 78.7796 245.03C79.5756 244.864 81.3096 244.899 81.4876 244.082C81.5976 243.577 81.3986 242.753 80.3696 242.859Z" fill="#89C5CC"/>
<path opacity="0.5" fill-rule="evenodd" clip-rule="evenodd" d="M19.534 252.132C15.4679 252.151 3.21495 250.73 1.53095 253.712C-0.713947 257.688 8.04365 256.76 10.399 256.714C15.7484 256.611 21.0941 256.6 26.4449 256.602C31.6951 256.604 36.9448 256.578 42.1941 256.484C43.7148 256.457 47.2546 256.931 48.1295 255.555C48.7944 254.508 48.2691 253.682 47.0428 253.128C44.0922 251.795 36.4269 252.568 32.9724 252.448C28.4997 252.293 24.0122 252.132 19.534 252.132Z" fill="#89C5CC"/>
<path opacity="0.5" fill-rule="evenodd" clip-rule="evenodd" d="M69.0007 252.869C66.6767 252.972 61.9766 252.252 59.8946 253.052C57.5286 253.961 58.3626 255.384 60.4046 256.01C61.8196 256.443 67.6227 256.216 69.0007 255.714C70.4367 255.191 72.0607 252.727 69.0007 252.869Z" fill="#89C5CC"/>
<path opacity="0.5" fill-rule="evenodd" clip-rule="evenodd" d="M94.4766 215.364C91.9946 215.876 92.7476 226.471 92.6836 228.15C92.5086 232.752 91.8206 238.54 93.8536 242.972C95.1506 245.797 97.6417 245.414 97.2167 242.44C96.8447 239.829 96.2047 237.248 95.9277 234.621C95.3027 228.675 94.4506 222.333 95.0416 216.382C95.2937 216.728 97.6477 219.935 98.2017 219.695C98.0347 219.771 95.4866 215.164 94.4766 215.364Z" fill="#89C5CC"/>
<path opacity="0.5" fill-rule="evenodd" clip-rule="evenodd" d="M122.394 211.462C117.371 211.518 112.349 211.585 107.328 211.689C103.335 211.773 97.0616 211.28 93.4006 212.543C89.0406 214.046 91.1086 217.396 95.2036 217.467C98.8267 217.53 102.69 216.915 106.345 216.821C116.218 216.567 126.109 216.513 135.986 216.449C144.92 216.391 154.233 217.108 163.088 216.099C164.401 224.869 160.849 233.676 162.057 242.547C162.244 243.923 162.16 245.869 164.492 246.182C167.435 246.579 167.556 244.387 167.667 242.817C167.986 238.336 167.813 233.852 168.25 229.365C168.654 225.207 169.45 220.957 168.777 216.792C167.95 211.668 164.684 212.078 158.911 211.865C146.718 211.416 134.601 211.327 122.394 211.462Z" fill="#89C5CC"/>
<path opacity="0.5" fill-rule="evenodd" clip-rule="evenodd" d="M105.562 242.602C103.002 242.651 98.7517 242.058 97.1117 243.903C95.4057 245.824 97.4297 247.498 99.9107 247.892C102.848 248.358 106.677 247.719 109.725 247.712C112.899 247.705 116.074 247.732 119.248 247.741C132.856 247.781 146.522 247.936 160.121 247.513C162.02 247.454 167.41 247.933 168.724 246.563C169.891 245.348 169.075 244.259 167.538 243.64C165.018 242.624 159.842 243.011 157.039 242.93C153.577 242.831 150.11 242.798 146.647 242.758C132.975 242.599 119.232 242.348 105.562 242.602Z" fill="#89C5CC"/>
<path opacity="0.5" fill-rule="evenodd" clip-rule="evenodd" d="M117.073 251.478C111.981 251.544 106.547 251.376 101.505 251.957C97.0716 252.467 96.5256 255.69 101.298 256.067C105.684 256.413 111.001 255.766 115.408 255.553C116.973 255.477 118.793 255.585 119.543 254.284C120.326 252.924 118.829 251.62 117.073 251.478Z" fill="#89C5CC"/>
<path opacity="0.5" fill-rule="evenodd" clip-rule="evenodd" d="M155.572 251.817C152.854 251.868 144.915 250.989 143.569 253.324C141.327 257.21 152.075 255.734 154.137 255.676C156.736 255.604 166.864 256.746 166.866 253.635C166.868 250.584 158.061 251.771 155.572 251.817Z" fill="#89C5CC"/>
<path opacity="0.5" fill-rule="evenodd" clip-rule="evenodd" d="M0.933759 271.13C0.940259 278.2 0.355158 285.336 1.21286 292.389C1.56756 295.306 1.50676 300.894 3.75355 303.366C5.34845 305.121 7.56044 304.999 8.43164 302.891C9.01394 301.482 8.08254 298.664 7.97864 297.156C7.87854 295.71 7.76164 294.264 7.67264 292.817C7.44405 289.089 7.46215 285.368 7.53035 281.638C7.58875 278.439 8.61294 274.206 7.64714 271.13C6.74675 268.263 0.933759 267.592 0.933759 271.13Z" fill="#69A1AC"/>
<path opacity="0.5" fill-rule="evenodd" clip-rule="evenodd" d="M95.4306 264.91C79.1176 265.217 62.7676 264.943 46.4693 265.55C38.4313 265.849 30.4248 266.507 22.4271 267.162C18.4978 267.484 14.5708 267.817 10.6484 268.18C9.46483 268.29 -0.370772 268.576 3.32863 271.389C4.94393 272.617 10.0842 271.334 12.1182 271.153C16.0563 270.803 20.0023 270.499 23.9459 270.185C31.4503 269.588 38.964 269.023 46.5004 268.709C64.2496 267.969 82.0726 268.191 99.8396 267.699C104.646 267.566 109.437 267.47 114.245 267.612C115.508 267.649 124.785 268.004 120.757 265.427C118.852 264.209 111.671 264.837 109.291 264.801C104.671 264.729 100.049 264.822 95.4306 264.91Z" fill="#69A1AC"/>
<path opacity="0.5" fill-rule="evenodd" clip-rule="evenodd" d="M117.669 276.821C117.589 273.555 117.508 270.288 117.31 267.024C117.102 263.587 123.329 263.067 125.175 265.849C126.505 267.852 126.271 271.26 126.07 274.181C125.99 275.358 125.914 276.457 125.949 277.352C126.028 279.403 126.229 281.525 126.432 283.674C126.944 289.083 127.473 294.671 126.128 299.778C125.474 302.259 122.691 303.563 120.838 302.211C120.835 302.213 120.833 302.216 120.83 302.219C120.133 302.992 117.964 302.99 116.366 302.989C115.926 302.989 115.529 302.988 115.219 303.004C110.842 303.228 106.546 303.605 102.207 304.094C93.5626 305.068 84.9936 305.667 76.2567 305.829C70.3277 305.94 64.3907 305.977 58.4527 306.014C47.0807 306.085 35.7033 306.156 24.3679 306.741C20.5462 306.939 16.7824 307.277 13.0232 307.818C12.7033 307.863 12.3479 307.923 11.9697 307.987C9.17458 308.454 5.12818 309.131 4.85168 306.193C4.52308 302.707 14.5712 302.25 19.742 302.016C20.5314 301.979 21.2072 301.949 21.715 301.913C37.4156 300.815 53.3625 300.985 69.1297 301.154C69.8937 301.161 70.6577 301.17 71.4207 301.178C72.6507 301.191 73.8807 301.206 75.1107 301.221C81.8617 301.305 88.6047 301.388 95.3527 301.078C98.4237 300.937 101.536 300.864 104.653 300.791C109.626 300.676 114.613 300.559 119.477 300.163C118.743 298.024 118.615 295.501 118.494 293.122C118.447 292.196 118.401 291.292 118.321 290.441C117.894 285.907 117.781 281.365 117.669 276.821Z" fill="#69A1AC"/>
<path opacity="0.5" fill-rule="evenodd" clip-rule="evenodd" d="M130.872 269.542C128.668 269.767 126.83 271.186 127.814 272.985C129.053 275.25 132.744 274.365 135.182 274.221C142.932 273.765 151.024 274.677 158.681 273.989C160.772 273.801 163.805 272.944 161.928 270.831C160.517 269.244 155.375 269.522 153.189 269.37C145.714 268.85 138.337 268.989 130.872 269.542Z" fill="#C1DEE2"/>
<path opacity="0.5" fill-rule="evenodd" clip-rule="evenodd" d="M143.952 279.424C140.947 279.576 133.95 279.456 132.683 282.028C130.411 286.641 139.31 285.015 142.02 284.753C145.167 284.448 152.587 285.264 154.263 282.969C157.26 278.865 146.588 279.287 143.952 279.424Z" fill="#C1DEE2"/>
<path opacity="0.5" fill-rule="evenodd" clip-rule="evenodd" d="M136.223 289.548C134.797 290.62 134.795 292.536 136.223 293.609C137.971 294.922 141.781 294.649 144.078 294.745C147.282 294.88 156.485 296.154 158.076 293.317C160.223 289.489 151.889 289.569 149.148 289.352C145.98 289.101 138.849 287.573 136.223 289.548Z" fill="#C1DEE2"/>
<path opacity="0.5" fill-rule="evenodd" clip-rule="evenodd" d="M23.9009 224.024C23.9009 228.139 32.449 228.139 32.449 224.024C32.449 219.93 23.9009 219.868 23.9009 224.024Z" fill="#89C5CC"/>
<path opacity="0.5" fill-rule="evenodd" clip-rule="evenodd" d="M40.1147 224.07C40.1147 228.775 49.8511 228.765 49.8511 224.07C49.8511 219.382 40.1147 219.334 40.1147 224.07Z" fill="#89C5CC"/>
<path opacity="0.5" fill-rule="evenodd" clip-rule="evenodd" d="M30.3062 230.326C25.5734 231.309 29.9334 234.325 32.131 235.013C35.6236 236.108 40.3902 236.916 43.8837 235.274C45.2737 234.62 46.4022 233.752 45.3836 232.485C44.2982 231.134 42.8122 231.735 41.1598 231.859C39.0665 232.018 37.3747 231.993 35.3533 231.488C33.8446 231.112 31.9516 229.985 30.3062 230.326Z" fill="#89C5CC"/>
<path opacity="0.5" fill-rule="evenodd" clip-rule="evenodd" d="M116.154 224.284C116.154 227.068 121.902 227.068 121.902 224.284C121.902 221.5 116.154 221.5 116.154 224.284Z" fill="#89C5CC"/>
<path opacity="0.5" fill-rule="evenodd" clip-rule="evenodd" d="M128.866 224.703C128.866 227.795 135.252 227.796 135.252 224.703C135.252 221.61 128.866 221.61 128.866 224.703Z" fill="#89C5CC"/>
<path opacity="0.5" fill-rule="evenodd" clip-rule="evenodd" d="M128.393 231.415C125.039 231.74 115.337 232.479 114.794 235.589C113.957 240.385 124.587 236.503 127.013 236.126C130.104 235.647 132.863 235.772 135.948 235.866C137.642 235.916 139.895 236.123 139.717 234.183C139.426 230.997 131.325 231.133 128.393 231.415Z" fill="#89C5CC"/>
<path opacity="0.5" fill-rule="evenodd" clip-rule="evenodd" d="M44.0552 275.649C41.6239 276.137 38.4433 279.298 40.1161 281.232C42.859 284.405 44.0686 279.534 45.2166 279.064C47.3052 278.212 49.0008 281.329 51.1835 279.694C54.6279 277.113 46.2236 275.213 44.0552 275.649Z" fill="#69A1AC"/>
<path opacity="0.5" fill-rule="evenodd" clip-rule="evenodd" d="M71.9136 273.304C69.0306 273.324 62.9437 276.393 62.5127 278.66C62.2567 280.007 63.4437 281.301 65.3747 281.319C68.0037 281.343 68.8386 278.773 71.1176 278.235C73.5756 277.655 73.2107 278.991 75.3336 279.683C76.8876 280.189 78.8306 279.977 79.3696 278.541C80.3886 275.832 74.8766 273.262 71.9136 273.304Z" fill="#69A1AC"/>
<path opacity="0.5" fill-rule="evenodd" clip-rule="evenodd" d="M49.8433 286.282C45.2315 288.313 52.8198 292.67 55.4505 293.215C59.4217 294.037 67.4146 292.502 68.3556 288.854C68.7306 287.402 67.5226 286.087 65.3916 286.347C63.6376 286.561 62.5127 288.216 60.8877 288.809C58.6937 289.608 56.7437 289.554 54.8802 288.35C53.3618 287.369 52.5486 285.095 49.8433 286.282Z" fill="#69A1AC"/>
<path opacity="0.5" fill-rule="evenodd" clip-rule="evenodd" d="M53.1859 316.308C49.0654 316.969 44.8771 316.525 40.7368 317.147C36.5149 317.78 33.9918 318.98 30.0694 317.771C29.8849 317.713 29.7008 317.655 29.5168 317.596C26.4809 316.612 23.299 316.321 20.1212 317.889C18.2407 318.816 12.532 322.024 13.22 323.981C14.7111 328.224 21.1347 321.57 22.7727 320.922C25.8962 319.685 28.0378 321.265 31.2535 321.711C35.1054 322.245 38.2048 320.714 41.8332 320.105C46.0769 319.392 50.8509 319.144 55.1683 318.762C56.8736 318.611 63.3347 319.626 63.9177 318.029C64.9197 315.288 54.8053 316.05 53.1859 316.308Z" fill="#C1DEE2"/>
<path opacity="0.5" fill-rule="evenodd" clip-rule="evenodd" d="M82.9127 324.854C83.1827 325.007 82.9667 324.884 82.9127 324.854V324.854ZM94.4526 316.143C97.9796 315.873 109.266 313.978 111.583 316.719C113.093 318.504 110.697 325.093 108.413 325.946C106.586 326.626 102.333 325.874 100.329 325.82C96.5997 325.722 92.8637 325.678 89.1387 325.503C87.8897 325.444 83.8707 325.617 82.8917 324.785C81.7357 323.804 81.7867 318.571 81.5147 317.273C84.7577 318.063 91.0616 316.401 94.4526 316.143ZM101.985 313.455C97.4676 313.602 92.9507 313.857 88.4667 314.313C85.9677 314.567 83.4347 315.242 81.1267 315.563C80.3827 315.666 79.1747 315.379 78.2627 315.711C75.5957 316.679 77.9307 323.229 78.5737 324.978C79.5617 327.666 82.0467 328.102 85.5296 328.354C90.1166 328.689 94.7977 328.584 99.3996 328.541C103.835 328.5 109.816 329.239 112.305 325.893C113.914 323.729 115.639 318.69 114.264 316.279C112.455 313.105 105.7 313.338 101.985 313.455Z" fill="#C1DEE2"/>
<path opacity="0.5" fill-rule="evenodd" clip-rule="evenodd" d="M152.575 326.654C152.333 326.887 152.333 326.887 152.575 326.654V326.654ZM153.565 325.757C153.49 325.842 153.143 326.117 153.565 325.757V325.757ZM142.791 325.51C144.783 325.228 146.775 324.949 148.768 324.676C146.881 326.663 144.893 325.842 141.667 325.669C142.042 325.616 142.417 325.563 142.791 325.51ZM133.291 324.806C133.795 324.68 134.3 324.553 134.805 324.426C134.789 324.715 134.872 324.985 135.052 325.237C134.188 325.167 133.325 325.091 132.462 325.012C132.738 324.943 133.015 324.875 133.291 324.806ZM128.888 322.362C128.86 321.841 129.902 322.199 130.5 322.163C129.348 322.927 128.81 322.993 128.888 322.362ZM144.633 316.449C144.785 316.303 144.986 316.31 145.236 316.47C144.963 316.54 143.913 316.874 144.633 316.449ZM154.844 315.545C154.871 315.545 155.438 316.121 154.844 315.545V315.545ZM154.558 315.357C154.706 315.442 154.706 315.442 154.558 315.357V315.357ZM153.283 315.245C155.371 315.51 155.213 317.352 153.283 315.245V315.245ZM128.755 315.12C128.331 315.384 128.476 315.127 128.755 315.12V315.12ZM136.739 311.197C133.195 311.353 126.688 311.196 123.728 312.616C119.865 314.469 121.898 320.85 122.244 323.648C122.754 327.782 125.342 328.96 130.52 329.393C136.7 329.911 143.049 330.008 149.261 329.885C154.855 329.775 158.041 328.328 159.066 323.899C159.38 322.544 160.176 320.447 160.151 319.149C160.134 318.249 159.537 317.838 159.312 317.073C158.027 312.714 155.878 312.197 149.937 312.007C145.564 311.867 141.03 311.028 136.739 311.197Z" fill="#89C5CC"/>
</g>
<g opacity="0.5">
<path opacity="0.5" fill-rule="evenodd" clip-rule="evenodd" d="M324.496 211.056C333.508 211.2 343.732 214.951 342.307 222.896C341.263 228.716 334.562 233.44 326.8 233.848C318.458 234.286 309.638 229.472 308.505 223.085C307.23 215.901 315.684 210.912 324.496 211.056ZM320.077 207.821C316.423 208.231 312.932 209.674 309.715 210.966C308.487 211.46 302.262 214.469 307.145 215.216C295.38 229.483 323.067 242.735 338.634 233.463C345.625 229.299 349.305 221.404 344.786 215.224C340.113 208.833 329.03 206.81 320.077 207.821Z" fill="#89C5CC"/>
<path opacity="0.5" fill-rule="evenodd" clip-rule="evenodd" d="M317.923 219.965C317.923 222.63 323.423 222.63 323.423 219.965C323.423 217.3 317.923 217.3 317.923 219.965Z" fill="#89C5CC"/>
<path opacity="0.5" fill-rule="evenodd" clip-rule="evenodd" d="M328.121 220.392C328.121 223.281 334.085 223.281 334.085 220.392C334.085 217.504 328.121 217.504 328.121 220.392Z" fill="#89C5CC"/>
<path opacity="0.5" fill-rule="evenodd" clip-rule="evenodd" d="M321.239 226.105C320.436 228.297 329.587 229.421 329.892 226.885C330.037 225.673 321.797 224.576 321.239 226.105Z" fill="#89C5CC"/>
<path opacity="0.5" fill-rule="evenodd" clip-rule="evenodd" d="M348.063 224.751C358.593 223.801 369.449 224.24 380.029 224.467C382.677 224.525 385.325 224.581 387.973 224.614C389.656 224.636 393.292 225.243 394.762 224.65C400.779 222.224 388.975 221.05 387.304 220.939C376.78 220.288 360.539 220.056 349.984 220.363C346.862 220.454 346.187 224.92 348.063 224.751Z" fill="#89C5CC"/>
<path opacity="0.5" fill-rule="evenodd" clip-rule="evenodd" d="M395.444 264.11C395.534 255.815 395.93 247.463 396.778 239.191C397.123 235.82 397.538 232.454 397.881 229.082C398.043 227.495 398.793 225.27 397.552 223.877C396.273 222.442 393.467 222.143 391.776 223.415C389.752 225.386 390.34 228.692 390.088 231.076C389.701 234.74 389.234 238.402 389.001 242.074C388.552 249.182 388.447 256.413 389.207 263.512C389.566 266.861 390.343 270.129 391.378 273.395C391.849 274.883 395.596 281.506 394.809 282.42C393.588 283.836 384.563 283.301 382.605 283.34C377.581 283.442 372.556 283.508 367.531 283.58C363.229 283.642 358.927 283.686 354.624 283.715C352.916 283.726 342.878 283.497 345.105 285.402C320.205 286.707 294.83 284.528 270.082 283.781C268.832 283.743 266.787 283.476 264.899 283.399C264.673 282.714 264.487 282.102 264.441 281.675C264.116 278.685 264.031 275.684 263.678 272.694C263.033 267.223 261.782 261.808 261.038 256.346C260.295 250.891 260.37 245.419 259.937 239.95C259.863 239.013 259.688 231.337 257.112 229.472C258.333 229.82 260.303 229.866 261.437 229.796C270.617 229.24 279.73 228.04 288.832 227.01C291.436 226.716 297.345 226.925 299.505 225.946C301.374 225.099 302.114 222.128 298.862 222.369C289.786 223.1 280.76 224.234 271.756 225.351C269.347 225.649 266.945 225.969 264.543 226.295C262.939 226.513 258.705 226.497 257.461 227.224C255.95 228.107 255.79 228.708 256.302 229.107C255.59 228.96 254.737 229.191 253.712 229.962C251.774 231.858 253.596 236.529 253.827 238.752C254.104 241.419 254.241 244.09 254.402 246.763C254.714 251.933 255.434 257.032 256.54 262.141C257.78 267.863 258.835 273.61 260.078 279.331C260.401 280.82 260.823 282.273 261.362 283.712C258.013 285 260.29 287.048 262.945 287.411C262.964 287.414 262.984 287.416 263.003 287.419C263.831 288.937 264.989 290.343 265.893 288.309C265.962 288.153 265.995 287.961 266.003 287.745C272.862 288.329 280.402 287.966 287.155 288.174C301.783 288.623 316.501 289.298 331.144 288.956C336.941 288.82 342.755 288.433 348.503 287.852C351.871 287.511 355.252 287.104 358.566 286.54C358.803 286.499 359.164 286.457 359.581 286.405C359.649 286.404 359.718 286.402 359.782 286.402C364.857 286.344 369.927 286.242 374.997 286.083C379.253 285.95 383.528 285.882 387.77 285.58C390.405 285.393 395.974 285.427 397.591 283.435C399.062 281.623 396.603 276.956 396.254 274.921C395.64 271.337 395.405 267.72 395.444 264.11Z" fill="#C1DEE2"/>
<path opacity="0.5" fill-rule="evenodd" clip-rule="evenodd" d="M344.02 240.157C339.965 240.418 336.216 241.85 332.124 241.868C328.689 241.882 325.308 241.11 321.854 241.225C317.803 241.357 315.574 243.327 312.026 243.987C309.201 244.511 307.421 242.884 304.936 242.165C301.799 241.257 299.481 241.726 296.792 243.1C294.816 244.109 290.208 246.375 290.244 248.417C290.35 254.603 299.947 246.058 301.881 245.954C304.452 245.817 307.324 248.02 310.059 248.146C313.675 248.312 315.993 246.559 319.323 245.921C322.69 245.275 326.33 246.066 329.706 246.312C333.557 246.591 336.928 245.946 340.654 245.255C344.265 244.585 347.342 244.62 351.011 245.183C353.487 245.563 359.657 247.77 360.74 244.932C362.215 241.066 346.854 239.976 344.02 240.157Z" fill="#89C5CC"/>
<path opacity="0.5" fill-rule="evenodd" clip-rule="evenodd" d="M345.254 251.953C336.946 252.56 328.587 253.092 320.241 253.262C316.626 253.336 302.73 252.171 303.962 255.625C305.019 258.587 323.929 256.722 327.781 256.496C332.033 256.248 336.279 255.901 340.51 255.498C342.009 255.355 345.63 255.503 346.689 254.558C347.697 253.655 347.2 251.808 345.254 251.953Z" fill="#89C5CC"/>
<path opacity="0.5" fill-rule="evenodd" clip-rule="evenodd" d="M287.939 267.684C287.75 267.744 287.75 267.744 287.939 267.684V267.684ZM289.692 267.666C291.763 267.617 291.319 266.796 293.385 267.223C294.338 267.42 294.436 267.128 295.175 267.813C296.616 269.149 295.259 272.058 293.838 273.135C288.577 277.122 282.263 267.843 289.692 267.666ZM289.692 263.754C275.289 264.118 281.315 280.848 293.851 277.433C299.028 276.023 302.282 269.669 299.237 266.098C297.756 264.361 295.867 264.052 293.385 263.931C292.809 263.904 292.084 264.533 291.725 264.504C290.87 264.437 290.95 263.719 289.692 263.754Z" fill="#89C5CC"/>
<path opacity="0.5" fill-rule="evenodd" clip-rule="evenodd" d="M324.135 268.257C323.878 268.197 328.682 269.248 328.157 268.836C329.279 269.714 327.77 271.789 326.501 272.15C323.428 273.028 321.704 269.434 324.135 268.257ZM326.267 263.72C321.757 264.201 318.277 265.613 317.66 269.384C317.091 272.865 320.219 276.39 325.152 276.457C335.906 276.606 336.233 262.675 326.267 263.72Z" fill="#89C5CC"/>
<path opacity="0.5" fill-rule="evenodd" clip-rule="evenodd" d="M375.357 268.409C375.987 274.59 367.463 268.933 375.357 268.409V268.409ZM371.699 261.797C370.953 262.755 371.589 263.771 372.714 264.328C362.66 265.926 364.937 277.303 375.168 275.622C380.371 274.767 381.327 270.654 380.552 267.257C380.183 265.641 374.83 257.771 371.699 261.797Z" fill="#89C5CC"/>
</g>
<path opacity="0.5" fill-rule="evenodd" clip-rule="evenodd" d="M395.485 267.732C392.488 268.133 385.403 270.622 385.464 273.295C385.56 277.469 391.582 272.91 392.922 272.298C400.117 269.005 409.437 273.271 416.93 274.18C420.365 274.596 427.085 275.365 430.119 273.634C435.515 270.555 423.036 271.326 421.446 271.202C412.808 270.531 404.214 266.56 395.485 267.732Z" fill="#C1DEE2"/>
<g opacity="0.5">
<path opacity="0.5" fill-rule="evenodd" clip-rule="evenodd" d="M537.05 238.393C537.047 242.662 536.76 247.021 537.807 251.239C538.124 252.517 538.374 254.963 540.165 255.625C541.965 256.291 543.71 255.543 544.157 254.156C544.679 252.542 543.535 250.126 543.419 248.432C543.26 246.117 543.249 243.799 543.248 241.482C543.247 239.808 543.979 237.115 541.351 236.254C539.398 235.614 537.05 236.805 537.05 238.393Z" fill="#C1DEE2"/>
<path opacity="0.5" fill-rule="evenodd" clip-rule="evenodd" d="M626.817 231.639C608.005 233.06 588.921 233.355 570.04 234.095C561.313 234.438 550.765 234.001 542.543 236.541C541.016 237.013 535.548 239.639 539.987 240.708C541.371 241.041 542.777 239.92 543.913 239.545C545.805 238.92 547.996 238.727 550.014 238.482C567.17 236.411 585.115 236.772 602.448 235.803C606.889 235.555 611.333 235.3 615.765 234.972C618.931 234.738 625.586 233.022 628.508 233.899C633.502 235.399 633.385 245.145 633.483 248.496C633.535 250.229 631.297 256.451 635.745 255.82C639.304 255.315 638.016 248.852 637.738 247.084C637.01 242.449 635.769 230.957 626.817 231.639Z" fill="#C1DEE2"/>
<path opacity="0.5" fill-rule="evenodd" clip-rule="evenodd" d="M633.755 255.596C617.414 256.705 600.697 255.616 584.288 256.053C575.688 256.282 567.096 256.646 558.494 256.86C554.774 256.953 551.05 256.956 547.328 256.977C545.548 256.986 537.447 257.797 542.458 260.451C544.677 261.626 551.749 260.679 554.295 260.657C558.12 260.623 561.942 260.503 565.764 260.39C574.616 260.13 583.463 259.769 592.32 259.59C600.792 259.417 609.269 259.38 617.741 259.208C621.956 259.121 626.229 259.024 630.407 258.562C631.35 258.457 634.412 258.374 635.067 257.583C635.686 256.836 635.251 255.487 633.755 255.596Z" fill="#89C5CC"/>
<path opacity="0.5" fill-rule="evenodd" clip-rule="evenodd" d="M553.443 246.37C553.355 246.527 553.355 246.527 553.443 246.37V246.37ZM560.519 244.753C560.777 244.835 560.777 244.835 560.519 244.753V244.753ZM560.188 244.708C564.001 247.631 558.137 251.12 554.565 248.267C550.773 245.239 557.733 244.717 560.188 244.708ZM556.143 240.286C543.008 242.044 547.658 255.207 559.927 253.305C565.313 252.47 568.393 248.39 566.539 244.471C565.815 242.939 564.236 241.258 562.038 240.776C560.942 240.536 559.972 240.914 558.928 240.825C557.932 240.741 557.379 240.119 556.143 240.286Z" fill="#C1DEE2"/>
<path opacity="0.5" fill-rule="evenodd" clip-rule="evenodd" d="M606.414 243.991C598.494 244.01 590.571 244.263 582.651 244.376C580.222 244.41 573.978 243.593 573.969 246.473C573.958 249.55 580.913 248.413 583.227 248.372C591.083 248.231 598.959 247.972 606.783 247.409C608.76 247.267 615.602 247.512 615.595 245.491C615.587 243.35 608.01 243.991 606.414 243.991Z" fill="#C1DEE2"/>
<path opacity="0.5" fill-rule="evenodd" clip-rule="evenodd" d="M625.333 264.074C605.743 264.47 586.182 264.607 566.608 265.362C559.286 265.644 551.974 265.853 544.642 265.853C543.23 265.853 540.386 265.442 539.057 266.111C535.45 267.924 539.557 269.482 541.908 269.579C557.989 270.25 574.302 268.58 590.373 268.203C599.782 267.983 609.192 267.917 618.595 267.557C621.16 267.46 623.726 267.345 626.287 267.196C627.76 267.11 631.655 267.345 632.845 266.697C638.043 263.868 627.085 264.039 625.333 264.074Z" fill="#89C5CC"/>
<path opacity="0.5" fill-rule="evenodd" clip-rule="evenodd" d="M535.45 271.277C535.265 275.096 535.246 278.849 535.911 282.648C536.172 284.142 536.292 285.838 538.622 286.218C540.738 286.562 541.811 285.359 542.249 284.025C543.319 280.767 542.378 276.078 542.365 272.693C542.359 271.019 542.357 269.146 539.607 268.768C537.509 268.479 535.53 269.619 535.45 271.277Z" fill="#89C5CC"/>
<path opacity="0.5" fill-rule="evenodd" clip-rule="evenodd" d="M646.098 280.485C614.386 281.741 582.716 282.838 550.982 283.847C548.507 283.926 529.281 283.768 536.002 288.81C538.078 290.367 543.427 289.312 546.112 289.214C550.146 289.064 554.183 288.95 558.218 288.796C574.214 288.183 590.253 288.019 606.237 287.331C615.034 286.953 623.81 286.361 632.561 285.591C636.723 285.225 641.89 285.263 645.788 284.036C647.794 283.405 649.958 280.331 646.098 280.485Z" fill="#89C5CC"/>
<path opacity="0.5" fill-rule="evenodd" clip-rule="evenodd" d="M627.864 261.111C625.452 262.917 626.692 266.48 626.874 268.712C627.124 271.784 627.428 274.858 627.938 277.913C628.27 279.898 628.094 282.986 629.502 284.7C631.151 286.708 634.781 286.485 636.272 284.546C637.591 282.831 636.923 279.222 636.889 277.321C636.842 274.693 636.624 272.06 636.417 269.436C636.243 267.244 636.904 263.731 635.3 261.854C633.67 259.948 630.124 259.42 627.864 261.111Z" fill="#89C5CC"/>
<path opacity="0.5" fill-rule="evenodd" clip-rule="evenodd" d="M555.381 275.126C555.098 275.29 555.098 275.29 555.381 275.126V275.126ZM561.013 274.596C566.269 275.39 557.771 280.004 555.085 276.838C554.666 276.343 554.447 275.735 555.121 275.305C555.735 274.912 556.121 275.607 556.702 275.42C557.702 275.099 559.946 274.565 561.013 274.596ZM560.288 270.807C556.7 271.021 551.767 271.188 549.991 273.892C547.605 277.525 551.685 281.083 556.406 281.635C560.949 282.168 567.731 280.276 568.095 276.292C568.388 273.08 564.325 270.561 560.288 270.807Z" fill="#89C5CC"/>
<path opacity="0.5" fill-rule="evenodd" clip-rule="evenodd" d="M590.245 272.728C586.531 272.774 579.229 271.948 575.993 273.309C572.791 274.657 574.219 277.055 577.14 277.629C579.071 278.008 582.227 277.397 584.237 277.335C586.882 277.254 589.528 277.236 592.175 277.209C596.625 277.164 601.073 277.202 605.524 277.202C610.069 277.202 614.693 277.295 619.23 277.044C624.972 276.726 624.817 273.493 619.202 273.089C609.664 272.403 599.815 272.616 590.245 272.728Z" fill="#89C5CC"/>
<path opacity="0.5" fill-rule="evenodd" clip-rule="evenodd" d="M580.757 308.935C580.757 310.47 582.569 308.935 582.556 308.935C582.569 308.935 580.757 307.399 580.757 308.935Z" fill="#89C5CC"/>
<path opacity="0.5" fill-rule="evenodd" clip-rule="evenodd" d="M539.761 296.571C539.878 301.035 539.955 305.504 540.208 309.965C540.289 311.376 539.751 314.13 542.025 314.849C544.556 315.65 545.343 313.654 545.635 312.302C546.558 308.019 545.653 303.128 545.564 298.794C545.534 297.339 545.953 295.313 543.755 294.588C541.962 293.995 539.725 295.095 539.761 296.571Z" fill="#89C5CC"/>
<path opacity="0.5" fill-rule="evenodd" clip-rule="evenodd" d="M637.399 296.641C637.549 296.907 637.549 296.907 637.399 296.641V296.641ZM637.611 296.595C637.733 296.634 638.224 296.789 637.611 296.595V296.595ZM589.647 292.987C580.533 293.094 571.412 293.176 562.303 293.469C558.416 293.594 554.483 293.696 550.609 293.971C547.865 294.167 541.049 294.248 539.269 295.934C535.596 299.415 543.384 298.465 545.062 298.182C548.115 297.668 551.231 297.503 554.35 297.379C561.117 297.111 567.887 296.968 574.663 296.865C593.038 296.586 611.426 296.629 629.804 296.567C631.583 296.561 634.799 296.022 636.442 296.564C638.089 297.106 637.996 298.44 638.167 299.988C638.394 302.049 636.587 305.975 637.964 307.708C640.1 310.396 643.206 308.113 643.681 306.154C644.337 303.446 643.297 300.194 642.279 297.605C640.843 293.954 638.849 293.809 634.152 293.523C628.663 293.19 623.195 292.988 617.688 292.949C608.343 292.885 598.992 292.878 589.647 292.987Z" fill="#89C5CC"/>
<path opacity="0.5" fill-rule="evenodd" clip-rule="evenodd" d="M625.698 311.442C605.928 313.169 585.596 312.151 565.721 312.212C560.888 312.227 556.051 312.256 551.222 312.432C548.672 312.525 542.627 311.996 540.88 313.476C537.197 316.594 543.831 317.048 546.253 316.919C551.15 316.657 556.058 316.538 560.968 316.509C578.26 316.409 595.651 317.016 612.929 316.374C620.168 316.105 627.245 315.174 634.35 314.133C635.924 313.903 646.699 312.362 640.555 310.516C636.924 309.425 629.512 311.107 625.698 311.442Z" fill="#89C5CC"/>
<path opacity="0.5" fill-rule="evenodd" clip-rule="evenodd" d="M567.976 305.733C567.838 305.866 567.838 305.866 567.976 305.733V305.733ZM567.843 305.71C567.796 305.805 567.651 306.042 567.843 305.71V305.71ZM566.596 304.501C566.625 304.529 566.743 304.642 566.596 304.501V304.501ZM566.548 304.492C567.024 304.919 567.345 305.396 567.51 305.921C563.414 306.756 561.835 304.264 566.548 304.492ZM566.289 304.375C566.291 304.376 566.867 304.558 566.289 304.375V304.375ZM559.561 300.663C556.91 303.145 554.721 306.038 558.026 308.873C560.982 311.409 566.927 311.736 570.678 310.043C574.541 308.3 574.207 304.628 571.512 302.231C569.777 300.688 568.371 300.731 565.853 300.479C564.139 300.308 561.015 299.306 559.561 300.663Z" fill="#89C5CC"/>
<path opacity="0.5" fill-rule="evenodd" clip-rule="evenodd" d="M586.964 305.257C586.964 308.563 605.945 307.14 609.322 307.136C612.151 307.133 629.255 308.306 628.027 304.905C627.018 302.11 610.171 303.499 606.583 303.495C603.482 303.492 586.964 301.891 586.964 305.257Z" fill="#89C5CC"/>
</g>
<g opacity="0.5">
<path opacity="0.5" fill-rule="evenodd" clip-rule="evenodd" d="M339.164 336.228C348.67 337.266 358.558 340.628 358.475 348.948C358.405 355.943 350.603 363.388 340.583 362.97C331.567 362.595 323.076 355.18 321.947 348.826C321.362 345.534 322.457 341.99 325.032 339.282C328.406 335.734 333.76 335.739 339.164 336.228ZM334.674 331.706C327.798 331.733 322.768 333.604 318.513 337.551C316.987 338.967 315.212 340.49 314.05 342.094C312.965 343.592 313.155 347.4 316.879 345.615C315.962 352.988 321.693 360.145 329.931 363.923C338.886 368.03 349.008 367.229 356.461 361.472C363.283 356.203 365.684 347.302 360.693 340.785C355.705 334.271 344.147 331.636 334.674 331.706Z" fill="#89C5CC"/>
<path opacity="0.5" fill-rule="evenodd" clip-rule="evenodd" d="M355.29 329.729C350.888 332.155 346.869 335.35 343.531 338.59C340.268 341.756 338.111 345.711 334.191 348.473C332.212 346.851 329.893 342.473 325.944 344.21C322.667 345.651 324.777 348.13 326.373 349.758C330.494 353.96 335.07 355.652 340.355 351.499C345.155 347.728 347.881 342.698 352.369 338.709C354.337 336.96 357.379 335.223 358.946 333.291C360.367 331.539 358.61 327.895 355.29 329.729Z" fill="#89C5CC"/>
</g>
<g opacity="0.5">
<path opacity="0.5" fill-rule="evenodd" clip-rule="evenodd" d="M521.639 66.6542C521.646 66.9851 521.652 67.2956 521.661 67.5821C521.867 73.8263 521.748 80.3909 521.073 86.6208C520.84 88.7722 518.759 91.498 516.385 88.533C515.341 87.2292 515.488 84.5522 515.595 82.5828C515.624 82.0542 515.65 81.5775 515.65 81.191C515.648 78.9938 515.801 76.774 515.955 74.5475C516.256 70.1959 516.559 65.821 515.702 61.5469C515.685 61.4605 515.668 61.3777 515.653 61.2973C515.28 59.4182 515.255 59.2881 512.506 59.3309C511.36 59.349 510.214 59.3723 509.069 59.3956C507.942 59.4182 506.815 59.4415 505.688 59.4588C504.568 59.4768 503.449 59.4926 502.33 59.5091C498.82 59.5595 495.31 59.6107 491.801 59.7069C491.216 59.7235 490.123 59.8265 488.745 59.9565C485.988 60.216 482.088 60.5844 478.806 60.5822C478.807 60.5927 478.808 60.6032 478.809 60.6138C478.811 60.6333 478.813 60.6521 478.813 60.6717C478.85 62.0342 478.383 63.5546 477.914 65.0826C477.522 66.3624 477.128 67.6475 477.027 68.8477C476.786 71.7043 476.783 74.5911 476.781 77.4786C476.777 80.994 476.774 84.5093 476.341 87.9698C476.32 88.139 476.307 88.3172 476.294 88.4977C476.293 88.5218 476.291 88.5458 476.289 88.5699C476.438 88.5526 476.582 88.5406 476.721 88.5338C479.087 88.421 481.472 88.4112 483.854 88.4007C485.168 88.3954 486.48 88.3902 487.787 88.3669C490.135 88.3263 492.512 88.3285 494.898 88.33C500.165 88.3345 505.479 88.339 510.631 87.8826C512.153 87.7345 512.685 89.2015 512.002 89.9625C511.391 90.6438 509.708 90.7543 508.476 90.8348C508.163 90.8558 507.879 90.8739 507.649 90.8994C504.326 91.2694 500.959 91.3987 497.606 91.5108C494.085 91.6281 490.56 91.7153 487.037 91.789C486.198 91.8071 485.079 91.892 483.838 91.986C480.561 92.2349 476.436 92.5485 474.389 91.8522C472.188 91.1032 472.24 90.2723 473.138 89.6286C472.744 88.9767 472.682 88.0255 472.633 87.281C472.615 86.9968 472.598 86.7426 472.566 86.5471C472.078 83.5837 471.783 80.6578 471.776 77.6688C471.762 71.8141 471.778 65.7331 473.932 60.0656C473.069 59.7813 472.549 59.3625 472.551 58.7594C472.561 55.7185 485.146 55.8735 491.129 55.9471C492.199 55.9599 493.057 55.9705 493.595 55.9599C497.953 55.8742 502.312 55.8629 506.671 55.881C507.592 55.8847 508.617 55.8389 509.679 55.7922C511.938 55.6922 514.365 55.5854 516.316 55.9261C521.442 56.8209 521.565 62.9599 521.639 66.6542Z" fill="#89C5CC"/>
<path opacity="0.5" fill-rule="evenodd" clip-rule="evenodd" d="M553.699 56.5923C558.458 56.4028 563.22 56.36 567.985 56.3464C573.03 56.3276 578.082 56.3953 583.125 56.5119L583.242 56.5149C585.476 56.5653 597.896 56.8457 592.19 59.173C591.858 59.3091 591.483 59.4219 591.074 59.5167C591.316 60.5942 591.345 61.7064 591.306 62.2425C591.159 64.275 591.062 66.3106 590.965 68.3454C590.899 69.7244 590.833 71.1035 590.751 72.4819C590.527 76.2898 590.313 80.0984 590.139 83.9085C590.117 84.3763 590.15 84.9876 590.187 85.6696C590.308 87.9232 590.471 90.9438 588.843 92.0605C587.414 93.0403 586.438 92.844 585.78 92.1778C581.692 93.0711 573.296 92.7808 569.075 92.635C568.057 92.5996 567.283 92.5725 566.869 92.5725C566.129 92.5733 564.753 92.6425 563.017 92.7305C555.788 93.0952 542.293 93.7772 542.266 91.0972C542.263 90.8393 542.374 90.6084 542.584 90.4009C542.011 89.9618 541.496 89.3166 541.165 88.5113C539.977 85.6207 539.865 82.5024 539.777 79.5051C539.652 75.2731 539.651 71.0359 539.65 66.8001C539.649 64.6239 539.648 62.4485 539.631 60.2746C538.858 59.4941 539.317 58.6016 540.281 57.9789C542.334 56.654 547.43 56.6382 551.116 56.6262C552.108 56.6232 552.998 56.6201 553.699 56.5923ZM545.955 89.2256C550.542 88.4894 558.271 88.7263 562.411 88.8534C563.496 88.8865 564.334 88.912 564.806 88.9105C569.035 88.8985 573.265 88.9429 577.491 89.07C577.929 89.0827 578.577 89.0707 579.341 89.0557C580.876 89.0271 582.876 88.9887 584.575 89.1309C584.552 88.9572 584.537 88.7992 584.528 88.6624C584.337 85.8335 584.475 82.9806 584.611 80.1435C584.64 79.5404 584.669 78.9381 584.695 78.3373C584.786 76.2161 584.906 74.0956 585.027 71.9758V71.9743C585.103 70.6396 585.178 69.3049 585.247 67.9701C585.277 67.3844 585.232 66.5881 585.182 65.6932C585.08 63.872 584.954 61.6387 585.388 59.9227C583.823 59.9009 582.22 59.8175 580.749 59.7408C579.333 59.6671 578.039 59.6001 577.022 59.5994C575.732 59.5994 574.443 59.5964 573.153 59.5934C569.579 59.5851 566.007 59.5768 562.433 59.6302C562.095 59.6355 561.756 59.64 561.416 59.6453C556.496 59.7167 551.534 59.7889 546.655 60.2761C546.369 60.3047 546.026 60.3596 545.645 60.4265C546.18 62.1079 545.918 64.4773 545.689 66.552C545.577 67.5596 545.473 68.498 545.472 69.2545C545.465 73.9587 545.63 78.6441 545.795 83.325V83.3258C545.858 85.0966 545.92 86.866 545.973 88.6361C545.98 88.8474 545.973 89.0436 545.955 89.2256Z" fill="#89C5CC"/>
<path opacity="0.5" fill-rule="evenodd" clip-rule="evenodd" d="M493.748 91.6529C490.621 93.0268 492.307 98.5228 493.391 100.423C495.172 103.549 498.786 105.994 502.686 107.616C510.568 110.895 521.93 110.024 527.891 115.709C527.953 115.767 530.013 117.301 530.482 115.315C530.867 113.684 527.021 111.195 525.53 110.378C521.291 108.054 515.855 107.305 510.952 106.144C505.723 104.906 499.985 102.624 497.792 98.5702C497.016 97.1347 498.496 89.558 493.748 91.6529Z" fill="#C1DEE2"/>
<path opacity="0.5" fill-rule="evenodd" clip-rule="evenodd" d="M565.243 94.2953C562.377 94.8893 564.273 97.855 564.268 99.3394C564.263 101.192 563.475 103.131 561.957 104.609C558.107 108.358 550.568 108.919 544.916 109.995C540.812 110.775 530.993 112.45 530.609 116.624C530.18 121.284 538.848 115.612 539.581 115.38C547.683 113.145 558.165 112.714 564.419 107.794C567 105.763 568.526 103.053 568.769 100.256C568.905 98.6807 568.929 93.5381 565.243 94.2953Z" fill="#C1DEE2"/>
<path opacity="0.5" fill-rule="evenodd" clip-rule="evenodd" d="M506.025 135.637C505.958 127.013 516.933 121.796 526.858 119.835C538.786 117.471 549.898 123.756 551.304 132.798C552.788 142.339 543.225 150.02 530.613 150.441C519.519 150.811 506.096 144.839 506.025 135.637ZM532.671 123.981C533.317 124.64 533.899 125.693 532.599 126.266C531.349 126.814 530.724 126.156 530.096 125.492C529.698 125.073 529.3 124.653 528.74 124.534C527.29 124.227 524.96 125.374 523.752 126.043C523.262 126.314 522.564 126.898 521.748 127.582C519.152 129.756 515.362 132.931 513.266 130.199C504.91 141.049 525.743 149.169 537.588 145.063C550.598 140.553 548.066 124.067 532.671 123.981Z" fill="#89C5CC"/>
<path opacity="0.5" fill-rule="evenodd" clip-rule="evenodd" d="M521.753 132.75C521.753 134.729 525.91 134.729 525.91 132.75C525.91 130.793 521.753 130.709 521.753 132.75Z" fill="#89C5CC"/>
<path opacity="0.5" fill-rule="evenodd" clip-rule="evenodd" d="M529.067 132.379C529.067 134.803 534.161 134.803 534.161 132.379C534.161 129.981 529.067 129.879 529.067 132.379Z" fill="#89C5CC"/>
<path opacity="0.5" fill-rule="evenodd" clip-rule="evenodd" d="M523.833 138.028C519.667 139.871 531.581 143.532 532.051 139.791C532.254 138.176 530.175 138.612 528.789 138.494C527.463 138.379 525.091 137.478 523.833 138.028Z" fill="#89C5CC"/>
<path opacity="0.5" fill-rule="evenodd" clip-rule="evenodd" d="M522.026 151.101C522.207 155.807 522.12 160.512 523.307 165.152C523.533 166.033 523.689 169.23 524.616 169.885C526.895 171.496 526.932 168.409 527.021 167.226C527.337 162.988 526.745 158.619 526.615 154.373C526.587 153.458 526.909 151.566 526.335 150.68C525.425 149.277 521.937 148.859 522.026 151.101Z" fill="#C1DEE2"/>
<path opacity="0.5" fill-rule="evenodd" clip-rule="evenodd" d="M517.57 147.285C508.437 154.993 495.86 154.425 483.19 155.1C476.496 155.457 469.727 156.189 464.34 159.445C461.834 160.96 459.674 162.858 458.222 165.019C457.588 165.965 454.578 171.419 459.098 170.125C460.702 169.666 462.28 166.059 463.316 164.992C465.291 162.961 467.818 161.283 470.849 160.193C476.696 158.089 483.678 158.126 490.018 157.859C496.645 157.58 503.758 157.319 509.85 155.152C512.716 154.132 515.404 152.861 517.711 151.223C518.535 150.637 520.302 149.642 520.434 148.746C520.584 147.723 519.276 145.849 517.57 147.285Z" fill="#C1DEE2"/>
<path opacity="0.5" fill-rule="evenodd" clip-rule="evenodd" d="M471.464 170.943C462.885 171.159 454.316 171.42 445.749 171.828C443.994 171.912 438.14 171.645 439.631 174.35C440.826 176.518 447.965 175.084 450.326 174.979C459.253 174.581 468.217 174.442 477.126 173.838C479.127 173.703 488.173 173.756 484.437 171.09C482.66 169.821 473.919 170.881 471.464 170.943Z" fill="#89C5CC"/>
<path opacity="0.5" fill-rule="evenodd" clip-rule="evenodd" d="M434.183 174.055C431.479 176.726 432.722 183.217 432.926 186.428C433.124 189.538 432.32 195.227 437.721 195.71C436.006 195.541 439.023 195.788 439.514 195.807C440.61 195.852 441.712 195.866 442.81 195.875C445.347 195.896 447.885 195.871 450.421 195.832C456.166 195.747 461.926 195.62 467.664 195.382C470.076 195.281 483.16 195.365 483.678 193.481C484.34 191.073 471.795 192.436 469.549 192.512C464.08 192.701 458.602 192.741 453.128 192.794C450.415 192.821 447.699 192.842 444.986 192.802C443.865 192.785 439.429 193.131 438.748 192.569C438.167 192.091 438.62 187.692 438.608 187.019C438.568 184.825 438.571 182.627 438.675 180.435C438.745 178.958 439.806 176.15 438.941 174.763C438.1 173.415 435.649 172.955 434.183 174.055Z" fill="#89C5CC"/>
<path opacity="0.5" fill-rule="evenodd" clip-rule="evenodd" d="M478.359 174.18C478.516 179.066 478.564 184.05 480.099 188.829C480.61 190.418 481.325 193.697 483.45 194.521C485.679 195.385 487.605 194.152 487.75 192.49C487.934 190.402 486.446 187.659 486.141 185.516C485.785 183.016 485.578 180.513 485.456 178C485.364 176.111 486.128 173.277 483.732 172.059C481.58 170.964 478.289 172.067 478.359 174.18Z" fill="#89C5CC"/>
<path opacity="0.5" fill-rule="evenodd" clip-rule="evenodd" d="M495.432 172.987C492.764 174.986 493.956 181.314 494.29 183.881C494.534 185.762 497.272 195.015 501.374 190.19C503.189 188.056 500.883 182.412 500.9 179.923C500.91 178.338 501.656 176.334 501.296 174.811C500.82 172.799 497.852 171.17 495.432 172.987Z" fill="#89C5CC"/>
<path opacity="0.5" fill-rule="evenodd" clip-rule="evenodd" d="M513.907 171.337C521.921 170.715 529.945 170.249 538.004 170.191C538.391 170.189 538.797 170.185 539.22 170.182C544.743 170.129 553.043 170.049 556.76 173.168C558.785 174.867 559.702 177.494 560.502 179.783C560.651 180.21 560.796 180.626 560.944 181.021C561.069 181.359 561.233 181.744 561.41 182.16C562.245 184.126 563.375 186.786 562.229 188.432C561.601 189.335 560.59 190.105 559.055 189.785C558.697 189.71 558.416 189.614 558.196 189.502C558.784 189.98 559.044 190.662 558.662 191.328C557.924 192.617 555.593 192.645 553.755 192.666C553.31 192.671 552.894 192.676 552.536 192.699C546.417 193.082 540.27 193.338 534.13 193.379C531.206 193.397 528.282 193.379 525.358 193.362C522.349 193.343 519.339 193.325 516.33 193.347C514.145 193.363 511.921 193.519 509.695 193.676C506.886 193.873 504.075 194.07 501.342 193.985C499.298 193.922 497.115 193.419 497.633 191.433C498.056 189.811 500.086 189.669 501.905 189.542C502.063 189.532 502.22 189.52 502.374 189.508C508.167 189.065 513.962 188.908 519.784 188.924C532.015 188.956 544.237 188.908 556.467 188.86C556.97 188.892 557.443 189.036 557.833 189.256C557.393 188.854 557.402 188.319 557.411 187.75C557.415 187.492 557.419 187.226 557.382 186.964C557.307 186.435 557.239 185.909 557.17 185.383C556.944 183.647 556.72 181.923 556.279 180.177C556.213 179.913 556.149 179.623 556.081 179.316C555.68 177.503 555.15 175.101 553.233 174.122C551.305 173.138 547.525 173.185 544.579 173.222C543.784 173.232 543.049 173.241 542.428 173.229C534.567 173.076 526.661 173.496 518.835 174.031C518.234 174.072 517.632 174.111 517.029 174.151C514.052 174.346 511.059 174.542 508.125 174.942C507.588 175.016 506.768 175.231 505.827 175.478C503.324 176.135 499.967 177.015 498.826 176.045C495.048 172.832 511.653 171.513 513.907 171.337Z" fill="#89C5CC"/>
<path opacity="0.5" fill-rule="evenodd" clip-rule="evenodd" d="M599.171 164.021C599.52 164.358 599.52 164.358 599.171 164.021V164.021ZM544.937 144.112C540.069 146.263 549.078 152.576 551.373 153.552C556.537 155.749 563.634 156.081 569.4 156.698C576.698 157.481 584.64 157.769 591.654 159.567C594.643 160.333 596.541 161.529 598.498 163.367C599.49 164.298 601.877 168.312 604.051 167.361C608.429 165.448 596.633 157.419 594.034 156.555C588.126 154.593 581.142 154.043 574.825 153.281C568.951 152.572 562.95 152.045 557.221 150.796C554.071 150.109 551.832 149.001 550.016 146.879C548.884 145.557 547.956 142.784 544.937 144.112Z" fill="#C1DEE2"/>
<path opacity="0.5" fill-rule="evenodd" clip-rule="evenodd" d="M619.555 168.772C613.943 168.866 608.342 169.191 602.742 169.515C599.6 169.697 596.459 169.879 593.317 170.02C592.334 170.064 591.35 170.104 590.366 170.144C587.597 170.256 584.825 170.368 582.07 170.578C581.652 170.61 581.167 170.64 580.638 170.672C578.298 170.816 575.108 171.013 573.069 171.655C571.2 170.592 568.315 171.496 568.27 173.391C568.193 176.842 568.235 180.233 568.795 183.663C568.925 184.46 569.594 188.491 571.05 190.59C570.532 192.572 572.779 193.127 574.87 193.279C582.97 193.867 591.463 193.41 599.842 192.961C604.103 192.731 608.335 192.504 612.47 192.416C613.845 192.387 615.238 192.376 616.639 192.364C621.211 192.325 625.871 192.286 630.297 191.636C630.475 191.609 630.666 191.584 630.866 191.557C632.616 191.321 635.029 190.996 635.213 189.547C635.323 188.678 634.671 187.883 633.58 187.771C633.655 187.046 633.534 186.256 633.445 185.676C633.424 185.54 633.405 185.416 633.391 185.307C633.125 183.293 632.458 181.292 631.799 179.317C631.651 178.873 631.504 178.43 631.361 177.989C631.203 177.5 631.057 176.918 630.899 176.292C630.343 174.079 629.643 171.299 627.784 170.008C625.833 168.654 622.658 168.714 620.114 168.762C619.924 168.766 619.737 168.769 619.555 168.772ZM629.43 187.987C628.765 186.677 628.57 184.906 628.385 183.223C628.269 182.166 628.156 181.144 627.934 180.292C627.766 179.653 627.629 178.979 627.49 178.294C627.152 176.63 626.801 174.901 625.97 173.443C624.858 171.49 623.868 171.564 621.526 171.741C621.091 171.774 620.608 171.81 620.07 171.838C617.683 171.96 615.298 172.115 612.914 172.271C611.77 172.345 610.626 172.419 609.482 172.49C604.586 172.792 599.687 173.026 594.788 173.258C591.926 173.394 589.063 173.529 586.201 173.68C583.955 173.797 581.762 174.118 579.579 174.438C577.85 174.691 576.126 174.944 574.386 175.093C574.361 175.541 574.311 175.99 574.263 176.418C574.198 177 574.138 177.543 574.151 177.988C574.208 179.959 574.439 181.918 574.671 183.881C574.707 184.182 574.742 184.484 574.777 184.786C574.819 185.148 574.923 185.612 575.038 186.128C575.215 186.926 575.42 187.845 575.465 188.691C575.677 188.69 575.888 188.691 576.095 188.691C576.363 188.692 576.626 188.692 576.879 188.689C583.047 188.608 589.211 188.468 595.376 188.289C596.163 188.267 596.95 188.244 597.737 188.221C603.237 188.06 608.737 187.898 614.242 187.851C616.429 187.832 618.644 187.884 620.867 187.936C623.726 188.002 626.596 188.069 629.43 187.987Z" fill="#89C5CC"/>
</g>
</g>
</svg>
